<svg width="40" height="40" viewBox="0 0 40 40" fill="none" xmlns="http://www.w3.org/2000/svg">
<g clip-path="url(#clip0_1_2808)">
<path d="M20.4167 39.9999C31.2323 39.9999 40 31.2322 40 20.4166C40 9.60101 31.2323 0.833252 20.4167 0.833252C9.60113 0.833252 0.833374 9.60101 0.833374 20.4166C0.833374 31.2322 9.60113 39.9999 20.4167 39.9999Z" fill="#EFF9FF"/>
<path d="M9.16671 9.16659C13.769 9.16659 17.5 7.3011 17.5 4.99992C17.5 2.69874 13.769 0.833252 9.16671 0.833252C4.56433 0.833252 0.833374 2.69874 0.833374 4.99992C0.833374 7.3011 4.56433 9.16659 9.16671 9.16659Z" stroke="#0962E8" stroke-linecap="round" stroke-linejoin="round"/>
<path d="M0.833374 5C0.833374 5 0.833374 8.53217 0.833374 10.8333C0.833374 13.1345 4.56433 15 9.16671 15C13.769 15 17.5 13.1345 17.5 10.8333C17.5 9.47033 17.5 5 17.5 5" stroke="#0962E8" stroke-linecap="round" stroke-linejoin="round"/>
<path d="M0.833374 10.8333C0.833374 10.8333 0.833374 14.3654 0.833374 16.6666C0.833374 18.9678 4.56433 20.8333 9.16671 20.8333C13.769 20.8333 17.5 18.9678 17.5 16.6666C17.5 15.3036 17.5 10.8333 17.5 10.8333" stroke="#0962E8" stroke-linecap="round" stroke-linejoin="round"/>
<path d="M0.833374 16.6667C0.833374 16.6667 0.833374 20.1989 0.833374 22.5001C0.833374 24.8012 4.56433 26.6667 9.16671 26.6667C13.769 26.6667 17.5 24.8012 17.5 22.5001C17.5 21.1371 17.5 16.6667 17.5 16.6667" stroke="#0962E8" stroke-linecap="round" stroke-linejoin="round"/>
<path d="M0.833374 22.5C0.833374 22.5 0.833374 26.0322 0.833374 28.3333C0.833374 30.6345 4.56433 32.5 9.16671 32.5C13.769 32.5 17.5 30.6345 17.5 28.3333C17.5 26.9703 17.5 22.5 17.5 22.5" stroke="#0962E8" stroke-linecap="round" stroke-linejoin="round"/>
<path d="M25.8333 20.8333C30.4357 20.8333 34.1667 18.9678 34.1667 16.6667C34.1667 14.3655 30.4357 12.5 25.8333 12.5C21.231 12.5 17.5 14.3655 17.5 16.6667C17.5 18.9678 21.231 20.8333 25.8333 20.8333Z" stroke="#0962E8" stroke-linecap="round" stroke-linejoin="round"/>
<path d="M17.5 16.6667C17.5 16.6667 17.5 20.1989 17.5 22.5001C17.5 24.8012 21.231 26.6667 25.8333 26.6667C30.4357 26.6667 34.1667 24.8012 34.1667 22.5001C34.1667 21.1371 34.1667 16.6667 34.1667 16.6667" stroke="#0962E8" stroke-linecap="round" stroke-linejoin="round"/>
<path d="M17.5 22.5C17.5 22.5 17.5 26.0322 17.5 28.3333C17.5 30.6345 21.231 32.5 25.8333 32.5C30.4357 32.5 34.1667 30.6345 34.1667 28.3333C34.1667 26.9703 34.1667 22.5 34.1667 22.5" stroke="#0962E8" stroke-linecap="round" stroke-linejoin="round"/>
</g>
<defs>
<clipPath id="clip0_1_2808">
<rect width="40" height="40" fill="white"/>
</clipPath>
</defs>
</svg>
