<svg width="40" height="38" viewBox="0 0 40 38" fill="none" xmlns="http://www.w3.org/2000/svg">
<g clip-path="url(#clip0_1_2823)">
<path d="M21.2 37.6C31.583 37.6 40 29.183 40 18.8C40 8.41705 31.583 0 21.2 0C10.8171 0 2.40002 8.41705 2.40002 18.8C2.40002 29.183 10.8171 37.6 21.2 37.6Z" fill="#EFF9FF"/>
<path d="M16.8 8.80005C19.0092 8.80005 20.8 7.00917 20.8 4.80005C20.8 2.59091 19.0092 0.800049 16.8 0.800049C14.5909 0.800049 12.8 2.59091 12.8 4.80005C12.8 7.00917 14.5909 8.80005 16.8 8.80005Z" stroke="#0962E8" stroke-linecap="round" stroke-linejoin="round"/>
<path d="M19.2 13.6001H14.4C13.657 13.6001 13.2856 13.6001 12.9727 13.6309C9.93403 13.9302 7.53003 16.3342 7.23075 19.3728C7.19995 19.6857 7.19995 20.0571 7.19995 20.8001H26.4C26.4 20.0571 26.4 19.6857 26.3692 19.3728C26.0699 16.3342 23.6659 13.9302 20.6272 13.6309C20.3144 13.6001 19.9429 13.6001 19.2 13.6001Z" stroke="#0962E8" stroke-linecap="round" stroke-linejoin="round"/>
<path d="M30.4 19.0273C31.9214 20.0067 32.8 21.1625 32.8 22.4004C32.8 25.935 25.6366 28.8004 16.8 28.8004C7.96349 28.8004 0.800049 25.935 0.800049 22.4004C0.800049 21.1625 1.67866 20.0067 3.20005 19.0273" stroke="#0962E8" stroke-linecap="round" stroke-linejoin="round"/>
<path d="M12.8 24.8L16.8 28.8L12.8 32.8001" stroke="#0962E8" stroke-linecap="round" stroke-linejoin="round"/>
</g>
<defs>
<clipPath id="clip0_1_2823">
<rect width="40" height="37.6" fill="white"/>
</clipPath>
</defs>
</svg>
