<svg width="40" height="40" viewBox="0 0 40 40" fill="none" xmlns="http://www.w3.org/2000/svg">
<g clip-path="url(#clip0_1_2800)">
<path d="M20.4167 40.0002C31.2323 40.0002 40 31.2324 40 20.4168C40 9.60125 31.2323 0.833496 20.4167 0.833496C9.60113 0.833496 0.833374 9.60125 0.833374 20.4168C0.833374 31.2324 9.60113 40.0002 20.4167 40.0002Z" fill="#EFF9FF"/>
<path d="M8.92804 14.6432C12.084 14.6432 14.6423 12.0848 14.6423 8.92892C14.6423 5.77297 12.084 3.2146 8.92804 3.2146C5.77211 3.2146 3.21375 5.77297 3.21375 8.92892C3.21375 12.0848 5.77211 14.6432 8.92804 14.6432Z" stroke="#0962E8" stroke-linecap="round" stroke-linejoin="round"/>
<path d="M26.0708 31.786C29.2267 31.786 31.785 29.2276 31.785 26.0718C31.785 22.9158 29.2267 20.3574 26.0708 20.3574C22.9149 20.3574 20.3564 22.9158 20.3564 26.0718C20.3564 29.2276 22.9149 31.786 26.0708 31.786Z" stroke="#0962E8" stroke-linecap="round" stroke-linejoin="round"/>
<path d="M17.5 34.1667C8.29531 34.1667 0.833374 26.7048 0.833374 17.5L6.38889 20.2778" stroke="#0962E8" stroke-linecap="round" stroke-linejoin="round"/>
<path d="M17.5 0.833496C26.7048 0.833496 34.1667 8.29538 34.1667 17.5002L28.6111 14.7224" stroke="#0962E8" stroke-linecap="round" stroke-linejoin="round"/>
</g>
<defs>
<clipPath id="clip0_1_2800">
<rect width="40" height="40" fill="white"/>
</clipPath>
</defs>
</svg>
